<svg xmlns="http://www.w3.org/2000/svg" xmlns:xlink="http://www.w3.org/1999/xlink" viewBox="0 0 919.01 296.22"><defs><style>.cls-1{fill:none;}.cls-2{fill:#074b89;stroke:#074b89;stroke-miterlimit:10;stroke-width:1.12px;}.cls-3{clip-path:url(#clip-path);}.cls-4{fill:#004b89;}.cls-5{fill:#f08223;}</style><clipPath id="clip-path"><rect class="cls-1" x="3.49" y="236.98" width="426.93" height="59.24"/></clipPath></defs><g id="Layer_2" data-name="Layer 2"><g id="Layer_1-2" data-name="Layer 1"><path class="cls-2" d="M56.55,64.07H16.73l.53.66-10.72,43H.72L27.18.56H72.3c20.77,0,28.31,13.1,23.81,31.76C91.61,50.05,77.32,64.07,56.55,64.07ZM70.84,6.25H31l.53.66L19,57.72l-.8.53h39.7c17.06,0,28.44-11.12,32-25.93C93.73,16.84,87.78,6.25,70.84,6.25Z"/><path class="cls-2" d="M220.35,107.73h-7l-5.82-28c-2.65-13-9.79-18.92-24.88-18.92H154.46l.4.66-11.51,46.31h-5.82L164,.56h43.13C225.38.56,237,10.22,232,30.73c-3.44,13.49-13.9,25.14-31,28.58v.26c7.41,2.91,11,10.32,12.57,17.6ZM205.8,6.25h-38l.39.8L156.58,54.28l-.79.79H192.3c19.19,0,30.43-11.77,33.48-24.34C230.14,13.26,220.35,6.25,205.8,6.25Z"/><path class="cls-2" d="M346.45,107.73H275.13L301.59.56h71.32l-1.33,5.69H305.43l.4.66L295.11,50.57l-.79.67h59.8l-1.32,5.69H292.86l.53.66-10.85,43.79-.79.66H347.9Z"/><path class="cls-2" d="M507.34,107.73h-6l23.16-93.67h-.27L512.36,32.32l-54,76.74H458L441.84,31.92l-2.78-18h-.26l-23.15,93.8h-5.83L436.29.56h5.29L459,83.26l2.25,12.83h.27l8.6-13L528.37.56h5.3Z"/><path class="cls-2" d="M579.71,107.73h-5.82L600.35.56h5.82Z"/><path class="cls-2" d="M755.55.56,741.26,58.91c-8.2,33.21-25.8,50.15-54.11,50.15s-37.58-16.81-29.37-50.15L672.2.56H678L663.46,59.44c-6.48,26.59-.79,43.93,25,43.93s40.09-17.2,46.71-43.93L749.73.56Z"/><path class="cls-2" d="M892,107.73h-6l23.16-93.67h-.27L897,32.32l-54,76.74h-.39L826.47,31.92l-2.78-18h-.26l-23.15,93.8h-5.83L820.92.56h5.29l17.46,82.7,2.25,12.83h.27l8.6-13L913,.56h5.29Z"/><path class="cls-2" d="M24.71,205.45C6.42,205.45-.2,193.5,4.12,175.93s17.07-30.24,35.36-30.24S64.39,158.29,60,175.93,42.86,205.45,24.71,205.45Zm12.82-51.77c-13.61,0-21.6,9.79-24.62,22.25-3,12.17.21,21.53,13.82,21.53s21.53-9.36,24.48-21.53S51.36,153.68,37.53,153.68ZM32.2,139.93c-3.09,0-4.1-2.09-3.38-5.12s2.88-5.11,5.9-5.11,4.11,2.09,3.32,5.11S35.15,139.93,32.2,139.93Zm17.36,0c-3,0-4.11-2.09-3.32-5.12s2.81-5.11,5.84-5.11,4.1,2.09,3.38,5.11S52.58,139.93,49.56,139.93Z"/><path class="cls-2" d="M119.61,204.73h-7.56L92.39,167l-2.3-6.62H90L79,204.73H70.43l14.4-58.32h7.49l19.73,37.8,2.31,6.55h.14l10.94-44.35H134Z"/><path class="cls-2" d="M227.32,204.73h-8.56l9.79-39.46h-.15l-5,7.71L198,205.52h-.22l-9.36-32.76-1.08-7.41h-.14l-9.72,39.38h-8.57l14.4-58.32h7.34l10.08,36.29,1.08,6.91H202l4.53-6.91,28-36.29h7.2Z"/><path class="cls-2" d="M304.44,178c-4.4,17.71-14.91,27.5-32.19,27.5s-23-9.65-18.58-27.5l7.78-31.54H270l-7.78,31.46c-3.1,12.32-.43,19.59,11.95,19.59s18.65-7.27,21.68-19.59l7.77-31.46h8.57Z"/><path class="cls-2" d="M366.64,204.73h-8.57l6-24.26,1.08-.87H331.36l.65.87-6,24.26h-8.57l14.4-58.32h8.57l-6.05,24.34-1.08.86h33.85l-.65-.86,6-24.34H381Z"/><path class="cls-2" d="M442,204.73h-9.36l-2.66-13.54.65-.79H399.76l.29.79-9.36,13.54h-9.37l40.54-58.32h8.36Zm-13.32-22.32-.72-.86-4-19.81-.29-5.32h-.14l-2.95,5.25-13.83,19.88-1.08.86Z"/><path class="cls-2" d="M479.46,205.45c-9.43,0-18.5-2.95-23.4-9.93l7.92-6.2c5.11,5.91,10.08,8.14,17.14,8.14,10.66,0,16.42-4,17.57-8.5.79-3.24-1.23-6.62-8.43-8.64-1.22-.36-8.71-2.45-9.93-2.81-9.8-2.88-16.56-6.69-14.33-15.62,2.09-8.5,11.52-16.2,27.5-16.2,9.44,0,16.56,3.31,20.81,9.36l-7.85,6.26c-2.8-4.82-7.56-7.63-14.9-7.63-10.73,0-15.77,4-16.71,7.92-.93,3.6,2.09,5.69,11.24,8.35,1.15.29,7.41,2.16,8.71,2.52,10.87,3,14.47,8.93,12.74,16.06C505.46,197,496.67,205.45,479.46,205.45Z"/><path class="cls-2" d="M564.93,204.73H520.72l14.4-58.32h44.21l-2,8h-36.5l.64.86-3.81,15.41-1.08.94h33.12l-2,7.92h-33l.65.86-3.81,15.49-1.08.86h36.5Z"/><path class="cls-2" d="M611.44,204.73H583.5l14.4-58.32h27.29c12.46,0,16.56,7.56,14.47,16.13a17.17,17.17,0,0,1-8.85,11.52l-.08.14c5,2.09,6.77,7.2,5.19,13.61C633.33,198.25,624.54,204.73,611.44,204.73Zm6.41-26H597.61l.65.86-4,16.28-1.08.86h20.3c8.5,0,12.32-3.24,13.68-8.93C628.5,182.27,626,178.74,617.85,178.74Zm4.68-24.34H603.59l.65.86-3.6,14.62-1.08.87h18.93c7.85,0,11.24-3.68,12.39-8.29C632.17,157.14,629.65,154.4,622.53,154.4Z"/><path class="cls-2" d="M692.8,204.73H648.59L663,146.41H707.2l-2,8h-36.5l.64.86-3.81,15.41-1.08.94h33.12l-2,7.92h-33l.65.86-3.82,15.49-1.08.86h36.51Z"/><g class="cls-3"><path class="cls-4" d="M199.21,237c8.89,0,17.77,0,26.66,0,1.25,0,1.5.33,1.49,1.52,0,3.7.07,7.4.22,11.1,0,1.25-.27,1.61-1.57,1.61q-25.2-.08-50.4,0c-2.76,0-4.57,1.49-4.71,3.85a4.11,4.11,0,0,0,4.25,4.45c3.38.07,6.76,0,10.14.07,8,.07,16.1.13,24.14.23a18.17,18.17,0,0,1,2.1,36.13,29.2,29.2,0,0,1-3.73.24c-16.85,0-33.7,0-50.54,0-1.32,0-1.59-.38-1.57-1.61.08-3.46.09-6.94,0-10.41,0-1.25.27-1.61,1.58-1.61,16.61.05,33.22,0,49.84.06,2.11,0,3.7-.66,4.66-2.58a4.52,4.52,0,0,0-4.09-6.64c-11.15,0-22.31,0-33.46,0a18.25,18.25,0,0,1-3.32-36.19,16.34,16.34,0,0,1,3-.19h25.27"/><path class="cls-4" d="M307.34,274.33c0-6.06.1-12.12,0-18.18a17.13,17.13,0,0,1,4-11.38A19.55,19.55,0,0,1,327.22,237c11.89,0,23.78,0,35.68,0,1.14,0,1.47.27,1.44,1.43-.08,3.65-.07,7.31,0,11,0,1.14-.28,1.46-1.45,1.46-11.66,0-23.32,0-35,0a15.39,15.39,0,0,0-1.8.06,3.84,3.84,0,0,0-3.61,4,28.24,28.24,0,0,1,0,2.91c-.16,1.35.21,1.78,1.68,1.78,12.27-.07,24.53,0,36.79-.07,1.21,0,1.67.21,1.63,1.56-.1,3.66-.08,7.32,0,11,0,1.14-.27,1.47-1.44,1.47-12.35,0-24.71,0-37.07,0-1.25,0-1.61.28-1.6,1.58.08,6.57,0,13.14.07,19.71,0,1.18-.33,1.45-1.46,1.43q-6.25-.1-12.5,0c-1.05,0-1.3-.27-1.3-1.31.05-6.85,0-13.7,0-20.55Z"/><path class="cls-4" d="M399.55,237.09c9.8,0,19.61,0,29.42,0,1.15,0,1.47.28,1.45,1.44-.08,3.65-.07,7.31,0,11,0,1.08-.26,1.39-1.37,1.39-7-.06-14,0-20.95-.06-1.1,0-1.38.29-1.37,1.38q0,21.09,0,42.19c0,1.8,0,1.8-1.86,1.8-3.66,0-7.31-.07-11,0-1.34,0-1.55-.43-1.55-1.63,0-14.06,0-28.13.06-42.19,0-1.25-.29-1.61-1.58-1.59-7,.06-14,0-21,.06-1.1,0-1.4-.3-1.38-1.4.07-3.69.07-7.4,0-11.1,0-1.08.33-1.29,1.34-1.28,9.9,0,19.8,0,29.7,0"/><path class="cls-5" d="M93.77,259.23c0-6.75,0-13.51,0-20.26,0-1.38.4-1.68,1.7-1.64,3.61.09,7.22.08,10.83,0,1.25,0,1.63.29,1.63,1.59,0,12.86,0,25.73,0,38.59,0,3.49,1.59,5.08,5.08,5.08,12.12,0,24.24,0,36.36,0,1.31,0,1.59.36,1.56,1.61-.09,3.61-.06,7.22,0,10.82,0,.89-.21,1.19-1.15,1.19-12.72,0-25.45.13-38.17-.07-10.38-.16-16-7.53-17.71-15.79a7,7,0,0,1,0-1.38q0-9.85,0-19.71"/><path class="cls-5" d="M89.05,266.88c0,9.3,0,18.6,0,27.9,0,1-.18,1.44-1.34,1.41-3.8-.08-7.59-.1-11.38,0-1.39,0-1.55-.48-1.54-1.65q0-20.9,0-41.78c0-4.67,0-9.34,0-14,0-1.22.4-1.45,1.5-1.43,3.79.07,7.59.07,11.38,0,1.1,0,1.4.27,1.4,1.38,0,9.39,0,18.78,0,28.17"/><path class="cls-5" d="M19.08,250.81c-.88,0-1.21.21-1.19,1.14.07,2.27.09,4.54,0,6.8,0,1.14.36,1.36,1.41,1.35q15.47,0,30.93,0c3,0,4.91-1.81,4.92-4.6s-1.87-4.65-4.86-4.65c-5.13,0-10.26,0-15.39,0s-10.54,0-15.81,0m0,22.57c-.88,0-1.2.2-1.18,1.14.07,2.36.05,4.72,0,7.08,0,.8.14,1.15,1.05,1.15,10.7,0,21.39,0,32.08,0,3,0,4.93-1.94,4.93-4.68s-2-4.63-5.09-4.63H35.32c-5.42,0-10.83,0-16.25,0m45.82-6.81c8.76,7.07,6.68,24.47-7.76,28.77a20.55,20.55,0,0,1-5.89.83q-23.12,0-46.24,0c-1.23,0-1.51-.3-1.51-1.51q.07-27.92,0-55.82c0-1.22.27-1.54,1.51-1.53,15.46,0,30.92,0,46.38,0,8.58,0,15.94,5.64,17.5,13.6a20.25,20.25,0,0,1-.66,11.22,7.55,7.55,0,0,1-3.34,4.39"/><path class="cls-4" d="M252.6,250.82c-3.77,0-6.14,2.39-6.15,6.17q0,9.78,0,19.57a5.83,5.83,0,0,0,6.16,6.21q15,0,30,0a5.88,5.88,0,0,0,6.18-6.21q0-9.8,0-19.58a5.79,5.79,0,0,0-6.18-6.16h-30m15-13.65h18.18a17.59,17.59,0,0,1,17.69,17.74V278.5a17.3,17.3,0,0,1-17.05,17.59q-18.74.24-37.47,0c-10.06-.13-17.34-7.81-17.35-17.85q0-11.52,0-23c0-10.37,7.71-18,18.09-18Z"/></g></g></g></svg>